<?xml version="1.0" encoding="UTF-8" standalone="yes"?>
<svg width="720" height="720" version="1.2" baseProfile="tiny-ps" xmlns="http://www.w3.org/2000/svg">
  <title>bimi-svg-tiny-12-ps</title>
  <path d="M0 0L0 720L720 720L720 0L0 0z" fill="#1d89d9" stroke="none"/>
  <path d="M339.667 130.333L340.333 130.667L339.667 130.333z" fill="#5791bb" stroke="none"/>
  <path d="M341 130L341 131L345 131L341 130z" fill="#a0bcd1" stroke="none"/>
  <path d="M260 279C248.295 279 227.311 274.868 218.532 284.329C208.511 295.131 214 324.139 214 338L214 486C214 507.103 211.395 530.094 214.188 551C215.204 558.599 221.366 564.516 229 564.957C296.164 568.835 364.709 565 432 565L481 565C488.48 565 496.155 566.036 501.66 559.895C506.948 553.995 506 546.344 506 539L506 497L506 347L506 307C506 300.397 506.996 292.964 503.467 287.04C495.862 274.277 472.552 279 460 279C460 244.581 465.449 206.058 447.572 175C413.442 115.708 314.913 113.705 276.208 169C253.988 200.744 260 242.401 260 279z" fill="#fdfefe" stroke="none"/>
  <path d="M375 130L375 131L379 131L375 130z" fill="#a0bcd1" stroke="none"/>
  <path d="M379.667 130.333L380.333 130.667L379.667 130.333M333 131L334 132L333 131z" fill="#5791bb" stroke="none"/>
  <path d="M334.667 131.333L335.333 131.667L334.667 131.333M384.667 131.333L385.333 131.667L384.667 131.333z" fill="#a0bcd1" stroke="none"/>
  <path d="M386 131L387 132L386 131M328 132L329 133L328 132z" fill="#5791bb" stroke="none"/>
  <path d="M329.667 132.333L330.333 132.667L329.667 132.333M389.667 132.333L390.333 132.667L389.667 132.333z" fill="#a0bcd1" stroke="none"/>
  <path d="M391 132L392 133L391 132M325 133L326 134L325 133z" fill="#5791bb" stroke="none"/>
  <path d="M326 133L327 134L326 133M393 133L394 134L393 133z" fill="#a0bcd1" stroke="none"/>
  <path d="M394 133L395 134L394 133z" fill="#5791bb" stroke="none"/>
  <path d="M322 134L323 135L322 134M397 134L398 135L397 134M319 135L320 136L319 135M400 135L401 136L400 135z" fill="#a0bcd1" stroke="none"/>
  <path d="M316 136L317 137L316 136z" fill="#5791bb" stroke="none"/>
  <path d="M317 136L318 137L317 136M402 136L403 137L402 136z" fill="#a0bcd1" stroke="none"/>
  <path d="M403 136L404 137L403 136M314 137L315 138L314 137M405 137L406 138L405 137z" fill="#5791bb" stroke="none"/>
  <path d="M312 138L313 139L312 138M407 138L408 139L407 138M310 139L311 140L310 139M409 139L410 140L409 139M308 140L309 141L308 140M411 140L412 141L411 140M306 141L307 142L306 141M413 141L414 142L413 141z" fill="#a0bcd1" stroke="none"/>
  <path d="M304 142L305 143L304 142M415 142L416 143L415 142z" fill="#5791bb" stroke="none"/>
  <path d="M303 143L304 144L303 143M341.667 143.333L342.333 143.667L341.667 143.333z" fill="#a0bcd1" stroke="none"/>
  <path d="M343.667 143.333L344.333 143.667L343.667 143.333z" fill="#5791bb" stroke="none"/>
  <path d="M273 279L289 278C289 249.868 283.18 215.808 299.09 191C325.948 149.121 398.264 149.793 422.688 194C436.279 218.602 431 250.816 431 278L447 279C447 249.42 452.915 213.068 438.68 186C410.58 132.57 322.615 126.145 287.439 176C266.619 205.508 273 244.844 273 279z" fill="#135c92" stroke="none"/>
  <path d="M375.667 143.333L376.333 143.667L375.667 143.333z" fill="#5791bb" stroke="none"/>
  <path d="M377.667 143.333L378.333 143.667L377.667 143.333M416 143L417 144L416 143M301 144L302 145L301 144M335 144L336 145L335 144z" fill="#a0bcd1" stroke="none"/>
  <path d="M336.667 144.333L337.333 144.667L336.667 144.333M382.667 144.333L383.333 144.667L382.667 144.333z" fill="#5791bb" stroke="none"/>
  <path d="M384 144L385 145L384 144M418 144L419 145L418 144M331 145L332 146L331 145z" fill="#a0bcd1" stroke="none"/>
  <path d="M332 145L333 146L332 145M387 145L388 146L387 145z" fill="#5791bb" stroke="none"/>
  <path d="M388 145L389 146L388 145z" fill="#a0bcd1" stroke="none"/>
  <path d="M298 146L299 147L298 146z" fill="#5791bb" stroke="none"/>
  <path d="M328 146L329 147L328 146M391 146L392 147L391 146z" fill="#a0bcd1" stroke="none"/>
  <path d="M421 146L422 147L421 146z" fill="#5791bb" stroke="none"/>
  <path d="M297 147L298 148L297 147M325 147L326 148L325 147M394 147L395 148L394 147M422 147L423 148L422 147z" fill="#a0bcd1" stroke="none"/>
  <path d="M295 148L296 149L295 148z" fill="#5791bb" stroke="none"/>
  <path d="M322 148L323 149L322 148z" fill="#a0bcd1" stroke="none"/>
  <path d="M323 148L324 149L323 148M396 148L397 149L396 148z" fill="#5791bb" stroke="none"/>
  <path d="M397 148L398 149L397 148z" fill="#a0bcd1" stroke="none"/>
  <path d="M424 148L425 149L424 148z" fill="#5791bb" stroke="none"/>
  <path d="M294 149L295 150L294 149z" fill="#a0bcd1" stroke="none"/>
  <path d="M320 149L321 150L320 149M399 149L400 150L399 149z" fill="#5791bb" stroke="none"/>
  <path d="M425 149L426 150L425 149M293 150L294 151L293 150z" fill="#a0bcd1" stroke="none"/>
  <path d="M318 150L319 151L318 150M401 150L402 151L401 150z" fill="#5791bb" stroke="none"/>
  <path d="M426 150L427 151L426 150z" fill="#a0bcd1" stroke="none"/>
  <path d="M316 151L317 152L316 151M403 151L404 152L403 151M314 152L315 153L314 152M405 152L406 153L405 152M289 153L290 154L289 153z" fill="#5791bb" stroke="none"/>
  <path d="M312 153L313 154L312 153M407 153L408 154L407 153z" fill="#a0bcd1" stroke="none"/>
  <path d="M430 153L431 154L430 153M288 154L289 155L288 154z" fill="#5791bb" stroke="none"/>
  <path d="M310 154L311 155L310 154M409 154L410 155L409 154z" fill="#a0bcd1" stroke="none"/>
  <path d="M431 154L432 155L431 154M287 155L288 156L287 155M309 155L310 156L309 155M410 155L411 156L410 155M432 155L433 156L432 155M286 156L287 157L286 156z" fill="#5791bb" stroke="none"/>
  <path d="M307 156L308 157L307 156M412 156L413 157L412 156z" fill="#a0bcd1" stroke="none"/>
  <path d="M433 156L434 157L433 156M285 157L286 158L285 157M306 157L307 158L306 157M413 157L414 158L413 157M434 157L435 158L434 157M284 158L285 159L284 158M435 158L436 159L435 158M283 159L284 160L283 159z" fill="#5791bb" stroke="none"/>
  <path d="M303 159L304 160L303 159M416 159L417 160L416 159z" fill="#a0bcd1" stroke="none"/>
  <path d="M436 159L437 160L436 159M302 160L303 161L302 160M417 160L418 161L417 160M344 161L345 162L344 161z" fill="#5791bb" stroke="none"/>
  <path d="M345.667 161.333L346.333 161.667L345.667 161.333M373.667 161.333L374.333 161.667L373.667 161.333z" fill="#a0bcd1" stroke="none"/>
  <path d="M375 161L376 162L375 161z" fill="#5791bb" stroke="none"/>
  <path d="M280 162L212 231L89 354L40 403L14 430L20 425L21 425C28.6257 434.106 49.0554 430 60 430C60 438.56 57.1652 453.275 61.0278 461C67.6242 474.192 87.1216 486.343 98 496.17C118.222 514.436 138.379 532.854 158.285 551.464C166.483 559.127 177.328 573.508 188 577.397C194.218 579.663 203.423 578 210 578L211.024 598.96L228.576 615.884L262.83 647.335L287 668.397L308 669L353 669L353 708L389 673L460 602L499 564L499 563C478.784 570.785 450.538 566 429 566L282 566L239 566C229.512 566 220.639 565.432 215.569 555.999C212.192 549.718 213 541.87 213 535L213 496L213 352L213 310C213 302.83 212.135 294.422 216.008 288.001C224.551 273.837 246.025 278 260 278C260 252.834 256.442 224.6 262.236 200C264.291 191.274 267.867 182.692 272.453 175C274.889 170.914 279.4 166.748 280 162z" fill="#135c92" stroke="none"/>
  <path d="M281 162L282 163L281 162z" fill="#a0bcd1" stroke="none"/>
  <path d="M339 162L340 163L339 162z" fill="#5791bb" stroke="none"/>
  <path d="M340 162L341 163L340 162M379 162L380 163L379 162z" fill="#a0bcd1" stroke="none"/>
  <path d="M380 162L381 163L380 162z" fill="#5791bb" stroke="none"/>
  <path d="M280 163L281 164L280 163M298 163L299 164L298 163z" fill="#a0bcd1" stroke="none"/>
  <path d="M335 163L336 164L335 163z" fill="#5791bb" stroke="none"/>
  <path d="M336 163L337 164L336 163M383 163L384 164L383 163z" fill="#a0bcd1" stroke="none"/>
  <path d="M384 163L385 164L384 163z" fill="#5791bb" stroke="none"/>
  <path d="M421 163L422 164L421 163M439 163L440 164L439 163z" fill="#a0bcd1" stroke="none"/>
  <path d="M279 164L280 165L279 164z" fill="#5791bb" stroke="none"/>
  <path d="M297 164L298 165L297 164z" fill="#a0bcd1" stroke="none"/>
  <path d="M332 164L333 165L332 164M387 164L388 165L387 164z" fill="#5791bb" stroke="none"/>
  <path d="M422 164L423 165L422 164M440 164L441 165L440 164M296 165L297 166L296 165z" fill="#a0bcd1" stroke="none"/>
  <path d="M329 165L330 166L329 165z" fill="#5791bb" stroke="none"/>
  <path d="M330 165L331 166L330 165M389 165L390 166L389 165z" fill="#a0bcd1" stroke="none"/>
  <path d="M390 165L391 166L390 165z" fill="#5791bb" stroke="none"/>
  <path d="M423 165L424 166L423 165z" fill="#a0bcd1" stroke="none"/>
  <path d="M441 165L442 166L441 165z" fill="#5791bb" stroke="none"/>
  <path d="M295 166L296 167L295 166M327 166L328 167L327 166M392 166L393 167L392 166M424 166L425 167L424 166M277 167L278 168L277 167M294 167L295 168L294 167M325 167L326 168L325 167M394 167L395 168L394 167M425 167L426 168L425 167M442 167L443 168L442 167z" fill="#a0bcd1" stroke="none"/>
  <path d="M276 168L277 169L276 168z" fill="#5791bb" stroke="none"/>
  <path d="M293 168L294 169L293 168M323 168L324 169L323 168M396 168L397 169L396 168M426 168L427 169L426 168M443 168L444 169L443 168M292 169L293 170L292 169M321 169L322 170L321 169M398 169L399 170L398 169M427 169L428 170L427 169z" fill="#a0bcd1" stroke="none"/>
  <path d="M319 170L320 171L319 170z" fill="#5791bb" stroke="none"/>
  <path d="M346.667 170.333L347.333 170.667L346.667 170.333z" fill="#a0bcd1" stroke="none"/>
  <path d="M348 170L348 171L352 171L348 170z" fill="#5791bb" stroke="none"/>
  <path d="M298 279C319.071 273.983 345.338 278 367 278C384.392 278 405.066 274.968 422 279C422 252.44 427.979 218.242 412.477 195C388.977 159.768 325.49 161.134 305.123 199C292.727 222.046 298 253.672 298 279z" fill="#135c92" stroke="none"/>
  <path d="M368 170L368 171L372 171L368 170z" fill="#5791bb" stroke="none"/>
  <path d="M372.667 170.333L373.333 170.667L372.667 170.333z" fill="#a0bcd1" stroke="none"/>
  <path d="M400 170L401 171L400 170M274 171L275 172L274 171z" fill="#5791bb" stroke="none"/>
  <path d="M318 171L319 172L318 171M341 171L342 172L341 171z" fill="#a0bcd1" stroke="none"/>
  <path d="M342 171L343 172L342 171M377 171L378 172L377 171z" fill="#5791bb" stroke="none"/>
  <path d="M378 171L379 172L378 171M401 171L402 172L401 171M445 171L446 172L445 171z" fill="#a0bcd1" stroke="none"/>
  <path d="M316 172L317 173L316 172z" fill="#5791bb" stroke="none"/>
  <path d="M337 172L338 173L337 172z" fill="#a0bcd1" stroke="none"/>
  <path d="M338 172L339 173L338 172M381 172L382 173L381 172z" fill="#5791bb" stroke="none"/>
  <path d="M382 172L383 173L382 172z" fill="#a0bcd1" stroke="none"/>
  <path d="M403 172L404 173L403 172z" fill="#5791bb" stroke="none"/>
  <path d="M273 173L274 174L273 173z" fill="#a0bcd1" stroke="none"/>
  <path d="M289 173L290 174L289 173z" fill="#5791bb" stroke="none"/>
  <path d="M315 173L316 174L315 173z" fill="#a0bcd1" stroke="none"/>
  <path d="M335 173L336 174L335 173M384 173L385 174L384 173z" fill="#5791bb" stroke="none"/>
  <path d="M404 173L405 174L404 173z" fill="#a0bcd1" stroke="none"/>
  <path d="M430 173L431 174L430 173z" fill="#5791bb" stroke="none"/>
  <path d="M446 173L447 174L446 173z" fill="#a0bcd1" stroke="none"/>
  <path d="M272 174L273 175L272 174z" fill="#5791bb" stroke="none"/>
  <path d="M288 174L289 175L288 174M332 174L333 175L332 174M387 174L388 175L387 174M431 174L432 175L431 174z" fill="#a0bcd1" stroke="none"/>
  <path d="M447 174L448 175L447 174M312 175L313 176L312 175M330 175L331 176L330 175M389 175L390 176L389 175M407 175L408 176L407 175M271 176L272 177L271 176z" fill="#5791bb" stroke="none"/>
  <path d="M311 176L312 177L311 176z" fill="#a0bcd1" stroke="none"/>
  <path d="M328 176L329 177L328 176M391 176L392 177L391 176z" fill="#5791bb" stroke="none"/>
  <path d="M408 176L409 177L408 176M448 176L449 177L448 176z" fill="#a0bcd1" stroke="none"/>
  <path d="M286 177L287 178L286 177z" fill="#5791bb" stroke="none"/>
  <path d="M310 177L311 178L310 177M326 177L327 178L326 177M393 177L394 178L393 177M409 177L410 178L409 177z" fill="#a0bcd1" stroke="none"/>
  <path d="M433 177L434 178L433 177z" fill="#5791bb" stroke="none"/>
  <path d="M270 178L271 179L270 178M285 178L286 179L285 178M309 178L310 179L309 178M324 178L325 179L324 178M395 178L396 179L395 178M410 178L411 179L410 178M434 178L435 179L434 178M449 178L450 179L449 178M308 179L309 180L308 179z" fill="#a0bcd1" stroke="none"/>
  <path d="M323 179L324 180L323 179M396 179L397 180L396 179z" fill="#5791bb" stroke="none"/>
  <path d="M411 179L412 180L411 179M269 180L270 181L269 180M284 180L285 181L284 180M307 180L308 181L307 180M321 180L322 181L321 180M398 180L399 181L398 180M412 180L413 181L412 180M435 180L436 181L435 180M450 180L451 181L450 180M306 181L307 182L306 181z" fill="#a0bcd1" stroke="none"/>
  <path d="M320 181L321 182L320 181M399 181L400 182L399 181z" fill="#5791bb" stroke="none"/>
  <path d="M413 181L414 182L413 181M268 182L269 183L268 182z" fill="#a0bcd1" stroke="none"/>
  <path d="M283 182L284 183L283 182z" fill="#5791bb" stroke="none"/>
  <path d="M305 182L306 183L305 182M414 182L415 183L414 182z" fill="#a0bcd1" stroke="none"/>
  <path d="M436 182L437 183L436 182z" fill="#5791bb" stroke="none"/>
  <path d="M451 182L452 183L451 182M282 183L283 184L282 183M304 183L305 184L304 183M415 183L416 184L415 183M437 183L438 184L437 183z" fill="#a0bcd1" stroke="none"/>
  <path d="M267 184L268 185L267 184M303 184L304 185L303 184z" fill="#5791bb" stroke="none"/>
  <path d="M316 184L317 185L316 184M403 184L404 185L403 184z" fill="#a0bcd1" stroke="none"/>
  <path d="M416 184L417 185L416 184z" fill="#5791bb" stroke="none"/>
  <path d="M452 184L453 185L452 184M281 185L282 186L281 185M315 185L316 186L315 185M404 185L405 186L404 185M438 185L439 186L438 185z" fill="#a0bcd1" stroke="none"/>
  <path d="M266 186L267 187L266 186z" fill="#5791bb" stroke="none"/>
  <path d="M314 186L315 187L314 186M405 186L406 187L405 186z" fill="#a0bcd1" stroke="none"/>
  <path d="M453 186L454 187L453 186z" fill="#5791bb" stroke="none"/>
  <path d="M266 187L267 188L266 187M280 187L281 188L280 187M301 187L302 188L301 187M313 187L314 188L313 187M406 187L407 188L406 187M418 187L419 188L418 187M439 187L440 188L439 187M453 187L454 188L453 187z" fill="#a0bcd1" stroke="none"/>
  <path d="M300 188L301 189L300 188z" fill="#5791bb" stroke="none"/>
  <path d="M312 188L313 189L312 188M407 188L408 189L407 188z" fill="#a0bcd1" stroke="none"/>
  <path d="M419 188L420 189L419 188z" fill="#5791bb" stroke="none"/>
  <path d="M265 189L266 190L265 189M279 189L280 190L279 189M311 189L312 190L311 189M408 189L409 190L408 189M440 189L441 190L440 189M454 189L455 190L454 189M299 190L300 191L299 190M420 190L421 191L420 190M278 191L279 192L278 191z" fill="#a0bcd1" stroke="none"/>
  <path d="M298 191L299 192L298 191M421 191L422 192L421 191z" fill="#5791bb" stroke="none"/>
  <path d="M441 191L442 192L441 191z" fill="#a0bcd1" stroke="none"/>
  <path d="M455 191L456 192L455 191z" fill="#5791bb" stroke="none"/>
  <path d="M264 192L265 193L264 192z" fill="#a0bcd1" stroke="none"/>
  <path d="M278 192L279 193L278 192M309 192L310 193L309 192M410 192L411 193L410 192M441 192L442 193L441 192z" fill="#5791bb" stroke="none"/>
  <path d="M455 192L456 193L455 192M297 193L298 194L297 193M308 193L309 194L308 193M411 193L412 194L411 193M422 193L423 194L422 193M277 194L278 195L277 194M442 194L443 195L442 194z" fill="#a0bcd1" stroke="none"/>
  <path d="M263 195L264 196L263 195z" fill="#5791bb" stroke="none"/>
  <path d="M296 195L297 196L296 195M423 195L424 196L423 195M456.333 195.667L456.667 196.333L456.333 195.667M263 196L264 197L263 196M306 196L307 197L306 196M413 196L414 197L413 196M276 197L277 198L276 197M295 197L296 198L295 197M424 197L425 198L424 197z" fill="#a0bcd1" stroke="none"/>
  <path d="M443 197L444 198L443 197M262 198L263 199L262 198M305 198L306 199L305 198M414 198L415 199L414 198M457 198L458 199L457 198z" fill="#5791bb" stroke="none"/>
  <path d="M262.333 199.667L262.667 200.333L262.333 199.667M294 199L295 200L294 199M304 199L305 200L304 199M415 199L416 200L415 199M425 199L426 200L425 199M457 199L458 200L457 199M275 200L276 201L275 200M444 200L445 201L444 200z" fill="#a0bcd1" stroke="none"/>
  <path d="M275 201L276 202L275 201M293 201L294 202L293 201z" fill="#5791bb" stroke="none"/>
  <path d="M303 201L304 202L303 201M416 201L417 202L416 201z" fill="#a0bcd1" stroke="none"/>
  <path d="M426 201L427 202L426 201M444 201L445 202L444 201M303 202L304 203L303 202M416 202L417 203L416 202M458 202L459 203L458 202M261 203L262 204L261 203z" fill="#5791bb" stroke="none"/>
  <path d="M274.333 203.667L274.667 204.333L274.333 203.667M445.333 203.667L445.667 204.333L445.333 203.667M458.333 203.667L458.667 204.333L458.333 203.667M261.333 204.667L261.667 205.333L261.333 204.667M292 204L293 205L292 204z" fill="#a0bcd1" stroke="none"/>
  <path d="M302 204L303 205L302 204M417 204L418 205L417 204z" fill="#5791bb" stroke="none"/>
  <path d="M427 204L428 205L427 204z" fill="#a0bcd1" stroke="none"/>
  <path d="M274 205L275 206L274 205M445 205L446 206L445 205M291 206L292 207L291 206z" fill="#5791bb" stroke="none"/>
  <path d="M301 206L302 207L301 206M418 206L419 207L418 206z" fill="#a0bcd1" stroke="none"/>
  <path d="M428 206L429 207L428 206z" fill="#5791bb" stroke="none"/>
  <path d="M291 207L292 208L291 207M428 207L429 208L428 207M273.333 208.667L273.667 209.333L273.333 208.667M446.333 208.667L446.667 209.333L446.333 208.667z" fill="#a0bcd1" stroke="none"/>
  <path d="M459.333 208.667L459.667 209.333L459.333 208.667M260.333 209.667L260.667 210.333L260.333 209.667M300 209L301 210L300 209M419 209L420 210L419 209M273 210L274 211L273 210M290 210L291 211L290 210M429 210L430 211L429 210M446 210L447 211L446 210z" fill="#5791bb" stroke="none"/>
  <path d="M459 210L459 213L460 213L459 210M260.333 211.667L260.667 212.333L260.333 211.667M290 211L291 212L290 211M429 211L430 212L429 211M299 212L300 213L299 212M420 212L421 213L420 212z" fill="#a0bcd1" stroke="none"/>
  <path d="M299 213L300 214L299 213M420 213L421 214L420 213z" fill="#5791bb" stroke="none"/>
  <path d="M272 215L272 220L273 220L272 215z" fill="#a0bcd1" stroke="none"/>
  <path d="M289.333 215.667L289.667 216.333L289.333 215.667M430.333 215.667L430.667 216.333L430.333 215.667z" fill="#5791bb" stroke="none"/>
  <path d="M447 215L447 220L448 220L447 215M298.333 216.667L298.667 217.333L298.333 216.667M421.333 216.667L421.667 217.333L421.333 216.667M289.333 217.667L289.667 218.333L289.333 217.667M430.333 217.667L430.667 218.333L430.333 217.667z" fill="#a0bcd1" stroke="none"/>
  <path d="M298.333 218.667L298.667 219.333L298.333 218.667M421.333 218.667L421.667 219.333L421.333 218.667M272 220L272 278L273 278L273 239L272 220M447 220L447 278L448 278L448 239L447 220z" fill="#5791bb" stroke="none"/>
  <path d="M422 226L422 278L423 278L423 243L422 226M297 227L298 228L297 227M297 269L297 276L298 276L297 269M297 277L298 278L297 277z" fill="#a0bcd1" stroke="none"/>
  <path d="M230 278L230 279L260 279L230 278z" fill="#5791bb" stroke="none"/>
  <path d="M272 278L273 279L272 278z" fill="#a0bcd1" stroke="none"/>
  <path d="M274 278L274 279L289 279L274 278M299 278L299 279L421 279C411.211 274.892 394.634 278 384 278L299 278M431 278L431 279L446 279L431 278z" fill="#5791bb" stroke="none"/>
  <path d="M447 278L448 279L447 278z" fill="#a0bcd1" stroke="none"/>
  <path d="M460 278L460 279L490 279L460 278M225 279L226 280L225 279z" fill="#5791bb" stroke="none"/>
  <path d="M226 279L227 280L226 279M493 279L494 280L493 279z" fill="#a0bcd1" stroke="none"/>
  <path d="M494 279L495 280L494 279z" fill="#5791bb" stroke="none"/>
  <path d="M223 280L224 281L223 280M496 280L497 281L496 280z" fill="#a0bcd1" stroke="none"/>
  <path d="M221 281L222 282L221 281z" fill="#5791bb" stroke="none"/>
  <path d="M498 281L499 282L498 281M220 282L221 283L220 282M499 282L500 283L499 282M217 285L218 286L217 285M502 285L503 286L502 285z" fill="#a0bcd1" stroke="none"/>
  <path d="M216 286L217 287L216 286z" fill="#5791bb" stroke="none"/>
  <path d="M503 286L504 287L503 286M215 288L216 289L215 288M504 288L505 289L504 288z" fill="#a0bcd1" stroke="none"/>
  <path d="M214 290L215 291L214 290M505 290L506 291L505 290z" fill="#5791bb" stroke="none"/>
  <path d="M214 291L215 292L214 291M505 291L506 292L505 291M237 292L238 293L237 292z" fill="#a0bcd1" stroke="none"/>
  <path d="M238 292L239 293L238 292z" fill="#5791bb" stroke="none"/>
  <path d="M239 292.533C220.117 297.125 227 334.615 227 349L227 492C227 506.099 221.714 534.135 230.514 545.957C235.407 552.53 242.681 552 250 552L291 552L422 552C440.183 552 464.49 556.269 481.999 551.431C499.856 546.497 493 508.962 493 495L493 351C493 336.892 498.393 308.432 488.606 297.108C483.772 291.515 476.718 292 470 292L428 292L300 292C281.133 292 257.321 288.078 239 292.533z" fill="#135c92" stroke="none"/>
  <path d="M481 292L482 293L481 292z" fill="#5791bb" stroke="none"/>
  <path d="M482 292L483 293L482 292M235 293L236 294L235 293M484 293L485 294L484 293z" fill="#a0bcd1" stroke="none"/>
  <path d="M213 295L214 296L213 295z" fill="#1d89d9" stroke="none"/>
  <path d="M232 295L233 296L232 295M487 295L488 296L487 295z" fill="#a0bcd1" stroke="none"/>
  <path d="M506 295L506 549L507 549L507 370L507 318L506 295M213 296L213 549L214 549L214 371L214 319L213 296z" fill="#5791bb" stroke="none"/>
  <path d="M231 296L232 297L231 296M488 296L489 297L488 296M230 297L231 298L230 297M489 297L490 298L489 297z" fill="#a0bcd1" stroke="none"/>
  <path d="M229 299L230 300L229 299M490 299L491 300L490 299z" fill="#5791bb" stroke="none"/>
  <path d="M228 300L229 301L228 300M491 300L492 301L491 300z" fill="#a0bcd1" stroke="none"/>
  <path d="M228 301L229 302L228 301M491 301L492 302L491 301z" fill="#5791bb" stroke="none"/>
  <path d="M227 303L228 304L227 303M492 303L493 304L492 303z" fill="#a0bcd1" stroke="none"/>
  <path d="M227.333 304.667L227.667 305.333L227.333 304.667M492.333 304.667L492.667 305.333L492.333 304.667M0 346L0 349L1 349L0 346M289 362L290 363L289 362z" fill="#5791bb" stroke="none"/>
  <path d="M290.149 363.028C286.425 365.246 286.872 370.486 291.109 371.682C296.989 373.343 304.909 372 311 372L398 372C404.868 372 426.38 375.526 431.253 370.397C434.211 367.283 431.433 363.223 427.981 362.318C420.813 360.439 411.397 362 404 362L322 362C313.867 362 297.213 358.819 290.149 363.028z" fill="#fdfefe" stroke="none"/>
  <path d="M430 362L431 363L430 362z" fill="#5791bb" stroke="none"/>
  <path d="M288 363L289 364L288 363M431 363L432 364L431 363z" fill="#a0bcd1" stroke="none"/>
  <path d="M287 364L288 365L287 364M432 364L433 365L432 364z" fill="#5791bb" stroke="none"/>
  <path d="M287 369L288 370L287 369M432 369L433 370L432 369z" fill="#a0bcd1" stroke="none"/>
  <path d="M290 372L291 373L290 372z" fill="#5791bb" stroke="none"/>
  <path d="M291 372L291 373L429 373C418.02 368.393 398.944 372 387 372L291 372z" fill="#a0bcd1" stroke="none"/>
  <path d="M429 372L430 373L429 372M291 417L291 418L429 418C418.02 413.393 398.944 417 387 417L291 417z" fill="#5791bb" stroke="none"/>
  <path d="M289 418L290 419L289 418z" fill="#a0bcd1" stroke="none"/>
  <path d="M290.228 418.742C284.793 421.288 288.542 427.144 293.005 427.852C303.804 429.564 316.062 428 327 428L396 428C403.892 428 424.53 431.661 430.678 426.397C434.237 423.35 431.958 419.006 427.956 418.228C420.458 416.771 411.631 418 404 418L323 418C314.088 418 298.338 414.944 290.228 418.742z" fill="#fdfefe" stroke="none"/>
  <path d="M430 418L431 419L430 418M287 420L288 421L287 420M432 420L433 421L432 420z" fill="#a0bcd1" stroke="none"/>
  <path d="M287 425L288 426L287 425M432 425L433 426L432 425z" fill="#5791bb" stroke="none"/>
  <path d="M288 426L289 427L288 426M431 426L432 427L431 426M289 427L290 428L289 427M430 427L431 428L430 427z" fill="#a0bcd1" stroke="none"/>
  <path d="M291 428L292 429L291 428z" fill="#1d89d9" stroke="none"/>
  <path d="M292 428L292 429L428 429C417.258 424.493 398.682 428 387 428L292 428M291 475L291 476L429 476C418.02 471.393 398.944 475 387 475L291 475z" fill="#5791bb" stroke="none"/>
  <path d="M289 476L290 477L289 476z" fill="#a0bcd1" stroke="none"/>
  <path d="M290.228 476.742C284.793 479.288 288.542 485.144 293.005 485.852C303.804 487.564 316.062 486 327 486L396 486C403.892 486 424.53 489.661 430.678 484.397C434.237 481.35 431.958 477.006 427.956 476.228C420.458 474.771 411.631 476 404 476L323 476C314.088 476 298.338 472.944 290.228 476.742z" fill="#fdfefe" stroke="none"/>
  <path d="M430 476L431 477L430 476M287 478L288 479L287 478M432 478L433 479L432 478M287 483L288 484L287 483z" fill="#a0bcd1" stroke="none"/>
  <path d="M432 483L433 484L432 483z" fill="#5791bb" stroke="none"/>
  <path d="M288 484L289 485L288 484M431 484L432 485L431 484M289 485L290 486L289 485M430 485L431 486L430 485z" fill="#a0bcd1" stroke="none"/>
  <path d="M291 486L292 487L291 486z" fill="#1d89d9" stroke="none"/>
  <path d="M292 486L292 487L428 487C417.258 482.493 398.682 486 387 486L292 486z" fill="#5791bb" stroke="none"/>
  <path d="M227 537L228 538L227 537z" fill="#1d89d9" stroke="none"/>
  <path d="M227.333 538.667L227.667 539.333L227.333 538.667M492 539L493 540L492 539z" fill="#5791bb" stroke="none"/>
  <path d="M227 540L228 541L227 540M492 540L493 541L492 540z" fill="#a0bcd1" stroke="none"/>
  <path d="M228 542L229 543L228 542z" fill="#1d89d9" stroke="none"/>
  <path d="M228 543L229 544L228 543M491 543L492 544L491 543M229 545L230 546L229 545M490 545L491 546L490 545z" fill="#a0bcd1" stroke="none"/>
  <path d="M230 546L231 547L230 546M489 546L490 547L489 546z" fill="#5791bb" stroke="none"/>
  <path d="M231 547L232 548L231 547z" fill="#1d89d9" stroke="none"/>
  <path d="M232 548L233 549L232 548M487 548L488 549L487 548z" fill="#5791bb" stroke="none"/>
  <path d="M213 549L214 550L213 549z" fill="#1d89d9" stroke="none"/>
  <path d="M233 549L234 550L233 549M486 549L487 550L486 549z" fill="#5791bb" stroke="none"/>
  <path d="M234 550L235 551L234 550z" fill="#a0bcd1" stroke="none"/>
  <path d="M235 550L236 551L235 550z" fill="#1d89d9" stroke="none"/>
  <path d="M485 550L486 551L485 550M236 551L237 552L236 551z" fill="#a0bcd1" stroke="none"/>
  <path d="M237 551L238 552L237 551M482 551L483 552L482 551z" fill="#5791bb" stroke="none"/>
  <path d="M483 551L484 552L483 551M239 552L239 553L242 553L239 552z" fill="#a0bcd1" stroke="none"/>
  <path d="M242 552L242 553L478 553L456 552L408 552L242 552z" fill="#5791bb" stroke="none"/>
  <path d="M478 552L478 553L481 553L478 552z" fill="#a0bcd1" stroke="none"/>
  <path d="M214 553L215 554L214 553z" fill="#5791bb" stroke="none"/>
  <path d="M505 553L506 554L505 553z" fill="#a0bcd1" stroke="none"/>
  <path d="M214 554L215 555L214 554z" fill="#1d89d9" stroke="none"/>
  <path d="M215 556L216 557L215 556M504 556L505 557L504 556z" fill="#5791bb" stroke="none"/>
  <path d="M216 557L217 558L216 557M503 557L504 558L503 557z" fill="#a0bcd1" stroke="none"/>
  <path d="M217 559L218 560L217 559M502 559L503 560L502 559M218 560L219 561L218 560M501 560L502 561L501 560M219 561L220 562L219 561M500 561L501 562L500 561z" fill="#5791bb" stroke="none"/>
  <path d="M220 562L221 563L220 562z" fill="#1d89d9" stroke="none"/>
  <path d="M222 563L223 564L222 563M497 563L498 564L497 563z" fill="#5791bb" stroke="none"/>
  <path d="M224 564L225 565L224 564z" fill="#a0bcd1" stroke="none"/>
  <path d="M495 564L496 565L495 564z" fill="#5791bb" stroke="none"/>
  <path d="M226 565L227 566L226 565z" fill="#1d89d9" stroke="none"/>
  <path d="M227 565L228 566L227 565z" fill="#5791bb" stroke="none"/>
  <path d="M228 565L228 566L492 566L468 565L414 565L228 565z" fill="#a0bcd1" stroke="none"/>
  <path d="M492 565L493 566L492 565z" fill="#5791bb" stroke="none"/>
  <path d="M227 567L228 568L227 567z" fill="#1d89d9" stroke="none"/>
</svg>