<svg data-name="Layer 1" xmlns="http://www.w3.org/2000/svg" width="866.52362" height="637.05628"
    viewBox="0 0 866.52362 637.05628" xmlns:xlink="http://www.w3.org/1999/xlink">
   
    <path d="M594.90728,516.06962,272.80489,604.901,166.73819,220.3032l322.10239-88.83134Z"
        transform="translate(-166.73819 -131.47186)" fill="#fff" />
    <path
        d="M594.90728,516.06962,272.80489,604.901,166.73819,220.3032l322.10239-88.83134ZM276.92016,597.65144l310.73759-85.69709-102.93244-373.233-310.7376,85.6971Z"
        transform="translate(-166.73819 -131.47186)" fill="#f1f1f1" />
    <path
        d="M418.744,303.76532l-80.741,22.26726a4.46018,4.46018,0,0,1-5.47917-3.11031l-22.26725-80.74105a4.46017,4.46017,0,0,1,3.11031-5.47917l80.74105-22.26725a4.46016,4.46016,0,0,1,5.47916,3.11031l22.26726,80.74105A4.46016,4.46016,0,0,1,418.744,303.76532ZM313.8406,238.42a2.676,2.676,0,0,0-1.86619,3.2875l22.26726,80.74105a2.676,2.676,0,0,0,3.2875,1.86619l80.741-22.26726a2.676,2.676,0,0,0,1.86619-3.2875l-22.26726-80.741a2.676,2.676,0,0,0-3.2875-1.86619Z"
        transform="translate(-166.73819 -131.47186)" fill="#e5e5e5" />
    <path
        d="M398.2766,320.03913l-80.741,22.26726a4.01409,4.01409,0,0,1-4.93125-2.79928L290.337,258.76606a4.01409,4.01409,0,0,1,2.79928-4.93125l80.741-22.26726a4.01409,4.01409,0,0,1,4.93125,2.79928l22.26726,80.74105A4.01408,4.01408,0,0,1,398.2766,320.03913Z"
        transform="translate(-166.73819 -131.47186)" fill="#1a7fca" />
    <rect x="263.48929" y="361.96862" width="233.72825" height="9.03209"
        transform="translate(-250.48374 -17.16149) rotate(-15.41811)" fill="#f1f1f1" />
    <rect x="269.75017" y="384.67055" width="233.72825" height="9.03209"
        transform="translate(-256.29398 -14.67996) rotate(-15.41811)" fill="#f1f1f1" />
    <rect x="276.01104" y="407.37248" width="233.72825" height="9.03209"
        transform="translate(-262.10422 -12.19843) rotate(-15.41811)" fill="#f1f1f1" />
    <rect x="287.03019" y="447.32789" width="233.72825" height="9.03209"
        transform="translate(-272.33023 -7.83093) rotate(-15.41811)" fill="#f1f1f1" />
    <rect x="293.29106" y="470.02982" width="233.72825" height="9.03209"
        transform="translate(-278.14047 -5.34939) rotate(-15.41811)" fill="#f1f1f1" />
    <rect x="299.55194" y="492.73176" width="233.72825" height="9.03209"
        transform="translate(-283.9507 -2.86786) rotate(-15.41811)" fill="#f1f1f1" />
    <path d="M698.0144,603.61617H363.88724V204.66055H698.0144Z"
        transform="translate(-166.73819 -131.47186)" fill="#fff" />
    <path
        d="M698.0144,603.61617H363.88724V204.66055H698.0144Zm-328.23263-5.89454H692.11986V210.55508H369.78177Z"
        transform="translate(-166.73819 -131.47186)" fill="#e5e5e5" />
    <rect x="279.40817" y="244.69464" width="191.03421" height="9.03209" fill="#1a7fca" />
    <rect x="279.40817" y="268.17807" width="191.03421" height="9.03209" fill="#1a7fca" />
    <rect x="279.40817" y="291.66149" width="191.03421" height="9.03209" fill="#1a7fca" />
    <circle cx="263.87741" cy="250.53394" r="5.89453" fill="#1a7fca" />
    <rect x="279.40817" y="143.50512" width="191.03421" height="9.03209" fill="#e5e5e5" />
    <rect x="279.40817" y="166.98855" width="191.03421" height="9.03209" fill="#e5e5e5" />
    <rect x="279.40817" y="190.47198" width="191.03421" height="9.03209" fill="#e5e5e5" />
    <circle cx="263.87741" cy="148.36201" r="5.89453" fill="#e5e5e5" />
    <rect x="279.40817" y="346.86657" width="191.03421" height="9.03209" fill="#e5e5e5" />
    <rect x="279.40817" y="370.35" width="191.03421" height="9.03209" fill="#e5e5e5" />
    <rect x="279.40817" y="393.83343" width="191.03421" height="9.03209" fill="#e5e5e5" />
    <circle cx="263.87741" cy="351.72346" r="5.89453" fill="#e5e5e5" />
    <circle cx="515.67691" cy="438.20509" r="68.29339" fill="#1a7fca" />
    <path
        d="M701.33633,565.32032V552.25311a18.92123,18.92123,0,1,0-37.84245,0v13.06721a9.83809,9.83809,0,0,0-9.39555,9.82325v30.87926h56.63355V575.14357A9.83809,9.83809,0,0,0,701.33633,565.32032ZM682.4151,539.99384a12.27276,12.27276,0,0,1,12.25846,12.25927v13.04444H670.15665V552.25311A12.27275,12.27275,0,0,1,682.4151,539.99384Z"
        transform="translate(-166.73819 -131.47186)" fill="#fff" />
    <path
        d="M687.50571,580.56948a5.09061,5.09061,0,1,0-7.95433,4.207v11.065H685.278v-11.065A5.08421,5.08421,0,0,0,687.50571,580.56948Z"
        transform="translate(-166.73819 -131.47186)" fill="#1a7fca" />
   
</svg>
