<svg data-name="Layer 1" xmlns="http://www.w3.org/2000/svg" width="793" height="551.73152"
    viewBox="0 0 793 551.73152" xmlns:xlink="http://www.w3.org/1999/xlink">
    <path
        d="M977.70889,651.09727H417.29111A18.79111,18.79111,0,0,1,398.5,632.30616h0q304.727-35.41512,598,0h0A18.79111,18.79111,0,0,1,977.70889,651.09727Z"
        transform="translate(-220 -174.13424)" fill="#2f2e41" />
    <path
        d="M996.5,633.41151l-598-1.10536,69.30611-116.61553.3316-.55268V258.13057a23.7522,23.7522,0,0,1,23.75418-23.75418H899.792a23.7522,23.7522,0,0,1,23.75418,23.75418V516.90649Z"
        transform="translate(-220 -174.13424)" fill="#3f3d56" />
    <path
        d="M491.35028,250.95679a7.74623,7.74623,0,0,0-7.73753,7.73753V493.03073a7.74657,7.74657,0,0,0,7.73753,7.73752H903.64972a7.74691,7.74691,0,0,0,7.73753-7.73752V258.69432a7.74657,7.74657,0,0,0-7.73753-7.73753Z"
        transform="translate(-220 -174.13424)" fill="#fff" />
    <path
        d="M493.07794,531.71835a3.32522,3.32522,0,0,0-3.01275,1.93006l-21.35537,46.42514a3.31594,3.31594,0,0,0,3.01221,4.7021H920.81411a3.3157,3.3157,0,0,0,2.96526-4.79925L900.5668,533.55126a3.29926,3.29926,0,0,0-2.96526-1.83291Z"
        transform="translate(-220 -174.13424)" fill="#2f2e41" />
    <circle cx="492.34196" cy="67.97967"
        r="4.97412" fill="#fff" />
    <path
        d="M651.69986,593.61853a3.32114,3.32114,0,0,0-3.20165,2.4536l-5.35679,19.89649a3.31576,3.31576,0,0,0,3.20166,4.17856h101.874a3.31531,3.31531,0,0,0,3.13257-4.40093l-6.88691-19.89649a3.31784,3.31784,0,0,0-3.13366-2.23123Z"
        transform="translate(-220 -174.13424)" fill="#2f2e41" />

    
    <path
        d="M856.81994,421.28372H538.18006a5.90767,5.90767,0,0,1-5.90073-5.90073V336.342a5.90767,5.90767,0,0,1,5.90073-5.90072H856.81994a5.90767,5.90767,0,0,1,5.90073,5.90072V415.383A5.90767,5.90767,0,0,1,856.81994,421.28372Zm-318.63988-88.4821a3.5443,3.5443,0,0,0-3.54043,3.54043V415.383a3.54431,3.54431,0,0,0,3.54043,3.54044H856.81994a3.54431,3.54431,0,0,0,3.54043-3.54044V336.342a3.5443,3.5443,0,0,0-3.54043-3.54043Z"
        transform="translate(-220 -174.13424)" fill="#e6e6e6" />
    <circle cx="384.19021"
        cy="198.69546" r="24.03645" fill="#e6e6e6" />
    <path
        d="M643.203,356.80541a4.00608,4.00608,0,1,0,0,8.01215H832.06074a4.00607,4.00607,0,0,0,0-8.01215Z"
        transform="translate(-220 -174.13424)" fill="#e6e6e6" />
    <path
        d="M643.203,380.84186a4.00607,4.00607,0,1,0,0,8.01214H724.469a4.00607,4.00607,0,1,0,0-8.01214Z"
        transform="translate(-220 -174.13424)" fill="#e6e6e6" />
</svg>
